<mxfile host="app.diagrams.net" modified="2023-05-11T22:09:00.583Z" agent="Mozilla/5.0 (Windows NT 10.0; Win64; x64) AppleWebKit/537.36 (KHTML, like Gecko) Chrome/113.0.0.0 Safari/537.36" etag="ST_2dVPd97ObfKMByeFi" version="21.2.9" type="github">
  <diagram name="AWS-Arquitetura" id="S7uKzpVKmjr0w2jfbeUK">
    <mxGraphModel dx="1079" dy="1678" grid="1" gridSize="10" guides="1" tooltips="1" connect="1" arrows="1" fold="1" page="1" pageScale="1" pageWidth="827" pageHeight="1169" math="0" shadow="0">
      <root>
        <mxCell id="0" />
        <mxCell id="1" parent="0" />
        <mxCell id="TQS1iKwEvL-egKky1lv4-264" value="Security group" style="fillColor=none;strokeColor=#DD3522;verticalAlign=top;fontStyle=0;fontColor=#DD3522;whiteSpace=wrap;html=1;" vertex="1" parent="1">
          <mxGeometry x="725" y="-871" width="120" height="140" as="geometry" />
        </mxCell>
        <mxCell id="TQS1iKwEvL-egKky1lv4-2" value="Auto Scaling group" style="points=[[0,0],[0.25,0],[0.5,0],[0.75,0],[1,0],[1,0.25],[1,0.5],[1,0.75],[1,1],[0.75,1],[0.5,1],[0.25,1],[0,1],[0,0.75],[0,0.5],[0,0.25]];outlineConnect=0;gradientColor=none;html=1;whiteSpace=wrap;fontSize=12;fontStyle=0;container=1;pointerEvents=0;collapsible=0;recursiveResize=0;shape=mxgraph.aws4.groupCenter;grIcon=mxgraph.aws4.group_auto_scaling_group;grStroke=1;strokeColor=#D86613;fillColor=none;verticalAlign=top;align=center;fontColor=#D86613;dashed=1;spacingTop=25;" vertex="1" parent="1">
          <mxGeometry x="465" y="-1017" width="230" height="450" as="geometry" />
        </mxCell>
        <mxCell id="TQS1iKwEvL-egKky1lv4-263" value="Security group" style="fillColor=none;strokeColor=#DD3522;verticalAlign=top;fontStyle=0;fontColor=#DD3522;whiteSpace=wrap;html=1;" vertex="1" parent="TQS1iKwEvL-egKky1lv4-2">
          <mxGeometry x="19" y="50" width="190" height="380" as="geometry" />
        </mxCell>
        <mxCell id="TQS1iKwEvL-egKky1lv4-3" value="" style="sketch=0;points=[[0,0,0],[0.25,0,0],[0.5,0,0],[0.75,0,0],[1,0,0],[0,1,0],[0.25,1,0],[0.5,1,0],[0.75,1,0],[1,1,0],[0,0.25,0],[0,0.5,0],[0,0.75,0],[1,0.25,0],[1,0.5,0],[1,0.75,0]];outlineConnect=0;fontColor=#232F3E;gradientColor=#F78E04;gradientDirection=north;fillColor=#D05C17;strokeColor=#ffffff;dashed=0;verticalLabelPosition=bottom;verticalAlign=top;align=center;html=1;fontSize=12;fontStyle=0;aspect=fixed;shape=mxgraph.aws4.resourceIcon;resIcon=mxgraph.aws4.ec2;" vertex="1" parent="TQS1iKwEvL-egKky1lv4-2">
          <mxGeometry x="79" y="78" width="78" height="78" as="geometry" />
        </mxCell>
        <mxCell id="TQS1iKwEvL-egKky1lv4-4" value="" style="sketch=0;points=[[0,0,0],[0.25,0,0],[0.5,0,0],[0.75,0,0],[1,0,0],[0,1,0],[0.25,1,0],[0.5,1,0],[0.75,1,0],[1,1,0],[0,0.25,0],[0,0.5,0],[0,0.75,0],[1,0.25,0],[1,0.5,0],[1,0.75,0]];outlineConnect=0;fontColor=#232F3E;gradientColor=#F78E04;gradientDirection=north;fillColor=#D05C17;strokeColor=#ffffff;dashed=0;verticalLabelPosition=bottom;verticalAlign=top;align=center;html=1;fontSize=12;fontStyle=0;aspect=fixed;shape=mxgraph.aws4.resourceIcon;resIcon=mxgraph.aws4.ec2;" vertex="1" parent="TQS1iKwEvL-egKky1lv4-2">
          <mxGeometry x="80" y="162" width="78" height="78" as="geometry" />
        </mxCell>
        <mxCell id="TQS1iKwEvL-egKky1lv4-5" value="" style="sketch=0;points=[[0,0,0],[0.25,0,0],[0.5,0,0],[0.75,0,0],[1,0,0],[0,1,0],[0.25,1,0],[0.5,1,0],[0.75,1,0],[1,1,0],[0,0.25,0],[0,0.5,0],[0,0.75,0],[1,0.25,0],[1,0.5,0],[1,0.75,0]];outlineConnect=0;fontColor=#232F3E;gradientColor=#F78E04;gradientDirection=north;fillColor=#D05C17;strokeColor=#ffffff;dashed=0;verticalLabelPosition=bottom;verticalAlign=top;align=center;html=1;fontSize=12;fontStyle=0;aspect=fixed;shape=mxgraph.aws4.resourceIcon;resIcon=mxgraph.aws4.ec2;" vertex="1" parent="TQS1iKwEvL-egKky1lv4-2">
          <mxGeometry x="82" y="336" width="78" height="78" as="geometry" />
        </mxCell>
        <mxCell id="TQS1iKwEvL-egKky1lv4-6" value="" style="sketch=0;points=[[0,0,0],[0.25,0,0],[0.5,0,0],[0.75,0,0],[1,0,0],[0,1,0],[0.25,1,0],[0.5,1,0],[0.75,1,0],[1,1,0],[0,0.25,0],[0,0.5,0],[0,0.75,0],[1,0.25,0],[1,0.5,0],[1,0.75,0]];outlineConnect=0;fontColor=#232F3E;gradientColor=#F78E04;gradientDirection=north;fillColor=#D05C17;strokeColor=#ffffff;dashed=0;verticalLabelPosition=bottom;verticalAlign=top;align=center;html=1;fontSize=12;fontStyle=0;aspect=fixed;shape=mxgraph.aws4.resourceIcon;resIcon=mxgraph.aws4.ec2;" vertex="1" parent="TQS1iKwEvL-egKky1lv4-2">
          <mxGeometry x="81" y="249" width="78" height="78" as="geometry" />
        </mxCell>
        <mxCell id="TQS1iKwEvL-egKky1lv4-1" value="" style="sketch=0;points=[[0,0,0],[0.25,0,0],[0.5,0,0],[0.75,0,0],[1,0,0],[0,1,0],[0.25,1,0],[0.5,1,0],[0.75,1,0],[1,1,0],[0,0.25,0],[0,0.5,0],[0,0.75,0],[1,0.25,0],[1,0.5,0],[1,0.75,0]];outlineConnect=0;fontColor=#232F3E;gradientColor=#4D72F3;gradientDirection=north;fillColor=#3334B9;strokeColor=#ffffff;dashed=0;verticalLabelPosition=bottom;verticalAlign=top;align=center;html=1;fontSize=12;fontStyle=0;aspect=fixed;shape=mxgraph.aws4.resourceIcon;resIcon=mxgraph.aws4.rds;" vertex="1" parent="1">
          <mxGeometry x="745" y="-835" width="78" height="78" as="geometry" />
        </mxCell>
        <mxCell id="TQS1iKwEvL-egKky1lv4-259" value="" style="edgeStyle=none;rounded=0;orthogonalLoop=1;jettySize=auto;html=1;" edge="1" parent="1" source="TQS1iKwEvL-egKky1lv4-2" target="TQS1iKwEvL-egKky1lv4-1">
          <mxGeometry relative="1" as="geometry" />
        </mxCell>
        <mxCell id="TQS1iKwEvL-egKky1lv4-252" style="edgeStyle=none;rounded=0;orthogonalLoop=1;jettySize=auto;html=1;" edge="1" parent="1" source="TQS1iKwEvL-egKky1lv4-262" target="TQS1iKwEvL-egKky1lv4-2">
          <mxGeometry relative="1" as="geometry">
            <mxPoint x="338" y="-861" as="sourcePoint" />
            <mxPoint x="390" y="-848.4866310160428" as="targetPoint" />
          </mxGeometry>
        </mxCell>
        <mxCell id="TQS1iKwEvL-egKky1lv4-253" style="edgeStyle=none;rounded=0;orthogonalLoop=1;jettySize=auto;html=1;" edge="1" parent="1" target="TQS1iKwEvL-egKky1lv4-262">
          <mxGeometry relative="1" as="geometry">
            <mxPoint x="287" y="-790.4831460674158" as="targetPoint" />
            <mxPoint x="235" y="-791" as="sourcePoint" />
          </mxGeometry>
        </mxCell>
        <mxCell id="TQS1iKwEvL-egKky1lv4-8" value="" style="sketch=0;points=[[0,0,0],[0.25,0,0],[0.5,0,0],[0.75,0,0],[1,0,0],[0,1,0],[0.25,1,0],[0.5,1,0],[0.75,1,0],[1,1,0],[0,0.25,0],[0,0.5,0],[0,0.75,0],[1,0.25,0],[1,0.5,0],[1,0.75,0]];outlineConnect=0;fontColor=#232F3E;gradientColor=#945DF2;gradientDirection=north;fillColor=#5A30B5;strokeColor=#ffffff;dashed=0;verticalLabelPosition=bottom;verticalAlign=top;align=center;html=1;fontSize=12;fontStyle=0;aspect=fixed;shape=mxgraph.aws4.resourceIcon;resIcon=mxgraph.aws4.cloudfront;" vertex="1" parent="1">
          <mxGeometry x="183" y="-835" width="78" height="78" as="geometry" />
        </mxCell>
        <mxCell id="TQS1iKwEvL-egKky1lv4-255" value="" style="edgeStyle=none;rounded=0;orthogonalLoop=1;jettySize=auto;html=1;entryX=0;entryY=0.5;entryDx=0;entryDy=0;entryPerimeter=0;" edge="1" parent="1" source="TQS1iKwEvL-egKky1lv4-272" target="TQS1iKwEvL-egKky1lv4-8">
          <mxGeometry relative="1" as="geometry">
            <mxPoint x="115" y="-790.5056179775281" as="sourcePoint" />
          </mxGeometry>
        </mxCell>
        <mxCell id="TQS1iKwEvL-egKky1lv4-251" value="&lt;b&gt;Application Load Balancer&lt;/b&gt;" style="text;strokeColor=none;align=center;fillColor=none;html=1;verticalAlign=middle;whiteSpace=wrap;rounded=0;" vertex="1" parent="1">
          <mxGeometry x="285" y="-757" width="80" height="52" as="geometry" />
        </mxCell>
        <mxCell id="TQS1iKwEvL-egKky1lv4-258" value="&lt;b&gt;RDS&lt;/b&gt;" style="text;strokeColor=none;align=center;fillColor=none;html=1;verticalAlign=middle;whiteSpace=wrap;rounded=0;" vertex="1" parent="1">
          <mxGeometry x="744" y="-772" width="80" height="52" as="geometry" />
        </mxCell>
        <mxCell id="TQS1iKwEvL-egKky1lv4-261" value="" style="sketch=0;points=[[0,0,0],[0.25,0,0],[0.5,0,0],[0.75,0,0],[1,0,0],[0,1,0],[0.25,1,0],[0.5,1,0],[0.75,1,0],[1,1,0],[0,0.25,0],[0,0.5,0],[0,0.75,0],[1,0.25,0],[1,0.5,0],[1,0.75,0]];outlineConnect=0;fontColor=#232F3E;gradientColor=#F54749;gradientDirection=north;fillColor=#C7131F;strokeColor=#ffffff;dashed=0;verticalLabelPosition=bottom;verticalAlign=top;align=center;html=1;fontSize=12;fontStyle=0;aspect=fixed;shape=mxgraph.aws4.resourceIcon;resIcon=mxgraph.aws4.waf;" vertex="1" parent="1">
          <mxGeometry x="725" y="-716" width="78" height="78" as="geometry" />
        </mxCell>
        <mxCell id="TQS1iKwEvL-egKky1lv4-262" value="" style="sketch=0;outlineConnect=0;fontColor=#232F3E;gradientColor=none;fillColor=#4D27AA;strokeColor=none;dashed=0;verticalLabelPosition=bottom;verticalAlign=top;align=center;html=1;fontSize=12;fontStyle=0;aspect=fixed;pointerEvents=1;shape=mxgraph.aws4.application_load_balancer;" vertex="1" parent="1">
          <mxGeometry x="301" y="-837" width="78" height="78" as="geometry" />
        </mxCell>
        <mxCell id="TQS1iKwEvL-egKky1lv4-266" value="&lt;b&gt;AWS WAF&lt;/b&gt;" style="text;strokeColor=none;align=center;fillColor=none;html=1;verticalAlign=middle;whiteSpace=wrap;rounded=0;" vertex="1" parent="1">
          <mxGeometry x="723" y="-648" width="80" height="52" as="geometry" />
        </mxCell>
        <mxCell id="TQS1iKwEvL-egKky1lv4-267" value="AWS Cloud" style="points=[[0,0],[0.25,0],[0.5,0],[0.75,0],[1,0],[1,0.25],[1,0.5],[1,0.75],[1,1],[0.75,1],[0.5,1],[0.25,1],[0,1],[0,0.75],[0,0.5],[0,0.25]];outlineConnect=0;gradientColor=none;html=1;whiteSpace=wrap;fontSize=12;fontStyle=0;container=1;pointerEvents=0;collapsible=0;recursiveResize=0;shape=mxgraph.aws4.group;grIcon=mxgraph.aws4.group_aws_cloud_alt;strokeColor=#232F3E;fillColor=none;verticalAlign=top;align=left;spacingLeft=30;fontColor=#232F3E;dashed=0;" vertex="1" parent="1">
          <mxGeometry x="414" y="-1050" width="460" height="642" as="geometry" />
        </mxCell>
        <mxCell id="TQS1iKwEvL-egKky1lv4-260" value="" style="sketch=0;points=[[0,0,0],[0.25,0,0],[0.5,0,0],[0.75,0,0],[1,0,0],[0,1,0],[0.25,1,0],[0.5,1,0],[0.75,1,0],[1,1,0],[0,0.25,0],[0,0.5,0],[0,0.75,0],[1,0.25,0],[1,0.5,0],[1,0.75,0]];outlineConnect=0;fontColor=#232F3E;gradientColor=#F54749;gradientDirection=north;fillColor=#C7131F;strokeColor=#ffffff;dashed=0;verticalLabelPosition=bottom;verticalAlign=top;align=center;html=1;fontSize=12;fontStyle=0;aspect=fixed;shape=mxgraph.aws4.resourceIcon;resIcon=mxgraph.aws4.shield;" vertex="1" parent="TQS1iKwEvL-egKky1lv4-267">
          <mxGeometry x="18" y="517" width="78" height="78" as="geometry" />
        </mxCell>
        <mxCell id="TQS1iKwEvL-egKky1lv4-265" value="&lt;b&gt;AWS Shield&lt;/b&gt;" style="text;strokeColor=none;align=center;fillColor=none;html=1;verticalAlign=middle;whiteSpace=wrap;rounded=0;" vertex="1" parent="TQS1iKwEvL-egKky1lv4-267">
          <mxGeometry x="17" y="588" width="80" height="52" as="geometry" />
        </mxCell>
        <mxCell id="TQS1iKwEvL-egKky1lv4-257" value="&lt;b&gt;EC2 AutoScaling Group&lt;br&gt;&lt;/b&gt;" style="text;strokeColor=none;align=center;fillColor=none;html=1;verticalAlign=middle;whiteSpace=wrap;rounded=0;" vertex="1" parent="TQS1iKwEvL-egKky1lv4-267">
          <mxGeometry x="50" y="478" width="230" height="30" as="geometry" />
        </mxCell>
        <mxCell id="TQS1iKwEvL-egKky1lv4-271" value="" style="sketch=0;points=[[0,0,0],[0.25,0,0],[0.5,0,0],[0.75,0,0],[1,0,0],[0,1,0],[0.25,1,0],[0.5,1,0],[0.75,1,0],[1,1,0],[0,0.25,0],[0,0.5,0],[0,0.75,0],[1,0.25,0],[1,0.5,0],[1,0.75,0]];points=[[0,0,0],[0.25,0,0],[0.5,0,0],[0.75,0,0],[1,0,0],[0,1,0],[0.25,1,0],[0.5,1,0],[0.75,1,0],[1,1,0],[0,0.25,0],[0,0.5,0],[0,0.75,0],[1,0.25,0],[1,0.5,0],[1,0.75,0]];outlineConnect=0;fontColor=#232F3E;gradientColor=#F34482;gradientDirection=north;fillColor=#BC1356;strokeColor=#ffffff;dashed=0;verticalLabelPosition=bottom;verticalAlign=top;align=center;html=1;fontSize=12;fontStyle=0;aspect=fixed;shape=mxgraph.aws4.resourceIcon;resIcon=mxgraph.aws4.cloudwatch_2;" vertex="1" parent="TQS1iKwEvL-egKky1lv4-267">
          <mxGeometry x="356" y="517" width="78" height="78" as="geometry" />
        </mxCell>
        <mxCell id="TQS1iKwEvL-egKky1lv4-273" value="" style="sketch=0;points=[[0,0,0],[0.25,0,0],[0.5,0,0],[0.75,0,0],[1,0,0],[0,1,0],[0.25,1,0],[0.5,1,0],[0.75,1,0],[1,1,0],[0,0.25,0],[0,0.5,0],[0,0.75,0],[1,0.25,0],[1,0.5,0],[1,0.75,0]];outlineConnect=0;fontColor=#232F3E;gradientColor=#4D72F3;gradientDirection=north;fillColor=#3334B9;strokeColor=#ffffff;dashed=0;verticalLabelPosition=bottom;verticalAlign=top;align=center;html=1;fontSize=12;fontStyle=0;aspect=fixed;shape=mxgraph.aws4.resourceIcon;resIcon=mxgraph.aws4.codedeploy;" vertex="1" parent="TQS1iKwEvL-egKky1lv4-267">
          <mxGeometry x="252" y="517" width="78" height="78" as="geometry" />
        </mxCell>
        <mxCell id="TQS1iKwEvL-egKky1lv4-275" value="&lt;b&gt;AWS CloudWatch&lt;/b&gt;" style="text;strokeColor=none;align=center;fillColor=none;html=1;verticalAlign=middle;whiteSpace=wrap;rounded=0;" vertex="1" parent="TQS1iKwEvL-egKky1lv4-267">
          <mxGeometry x="356" y="588" width="80" height="52" as="geometry" />
        </mxCell>
        <mxCell id="TQS1iKwEvL-egKky1lv4-274" value="&lt;b&gt;Code Deploy&lt;/b&gt;" style="text;strokeColor=none;align=center;fillColor=none;html=1;verticalAlign=middle;whiteSpace=wrap;rounded=0;" vertex="1" parent="TQS1iKwEvL-egKky1lv4-267">
          <mxGeometry x="250" y="580" width="80" height="52" as="geometry" />
        </mxCell>
        <mxCell id="TQS1iKwEvL-egKky1lv4-276" value="" style="sketch=0;points=[[0,0,0],[0.25,0,0],[0.5,0,0],[0.75,0,0],[1,0,0],[0,1,0],[0.25,1,0],[0.5,1,0],[0.75,1,0],[1,1,0],[0,0.25,0],[0,0.5,0],[0,0.75,0],[1,0.25,0],[1,0.5,0],[1,0.75,0]];outlineConnect=0;fontColor=#232F3E;gradientColor=#F78E04;gradientDirection=north;fillColor=#D05C17;strokeColor=#ffffff;dashed=0;verticalLabelPosition=bottom;verticalAlign=top;align=center;html=1;fontSize=12;fontStyle=0;aspect=fixed;shape=mxgraph.aws4.resourceIcon;resIcon=mxgraph.aws4.elastic_beanstalk;" vertex="1" parent="TQS1iKwEvL-egKky1lv4-267">
          <mxGeometry x="136" y="517" width="78" height="78" as="geometry" />
        </mxCell>
        <mxCell id="TQS1iKwEvL-egKky1lv4-277" value="&lt;b&gt;Elastic BeanStalk&lt;/b&gt;" style="text;strokeColor=none;align=center;fillColor=none;html=1;verticalAlign=middle;whiteSpace=wrap;rounded=0;" vertex="1" parent="TQS1iKwEvL-egKky1lv4-267">
          <mxGeometry x="146" y="588" width="80" height="52" as="geometry" />
        </mxCell>
        <mxCell id="TQS1iKwEvL-egKky1lv4-254" value="&lt;b&gt;CloudFront&lt;/b&gt;" style="text;strokeColor=none;align=center;fillColor=none;html=1;verticalAlign=middle;whiteSpace=wrap;rounded=0;" vertex="1" parent="1">
          <mxGeometry x="155" y="-751" width="80" height="30" as="geometry" />
        </mxCell>
        <mxCell id="TQS1iKwEvL-egKky1lv4-272" value="users" style="sketch=0;outlineConnect=0;gradientColor=none;fontColor=#545B64;strokeColor=none;fillColor=#879196;dashed=0;verticalLabelPosition=bottom;verticalAlign=top;align=center;html=1;fontSize=12;fontStyle=0;aspect=fixed;shape=mxgraph.aws4.illustration_users;pointerEvents=1" vertex="1" parent="1">
          <mxGeometry x="36" y="-846" width="100" height="100" as="geometry" />
        </mxCell>
      </root>
    </mxGraphModel>
  </diagram>
</mxfile>
